<?xml version="1.0" encoding="utf-8"?>
<!-- Generator: Adobe Illustrator 16.0.4, SVG Export Plug-In . SVG Version: 6.00 Build 0)  -->
<!DOCTYPE svg PUBLIC "-//W3C//DTD SVG 1.1//EN" "http://www.w3.org/Graphics/SVG/1.1/DTD/svg11.dtd">
<svg version="1.1" id="Layer_1" xmlns="http://www.w3.org/2000/svg" xmlns:xlink="http://www.w3.org/1999/xlink" x="0px" y="0px"
	 width="50px" height="50px" viewBox="0 0 50 50" enable-background="new 0 0 50 50" xml:space="preserve">
<path id="Blue_1_" fill="#3D5A98" d="M46.351,49C47.813,49,49,47.814,49,46.351V3.649C49,2.186,47.813,1,46.351,1H3.649
	C2.186,1,1,2.186,1,3.649v42.702C1,47.814,2.186,49,3.649,49H46.351z"/>
<path id="f" fill="#FFFFFF" d="M34.119,49V30.412h6.239l0.935-7.245h-7.174v-4.625c0-2.097,0.582-3.526,3.59-3.526l3.836-0.002
	V8.535c-0.664-0.088-2.94-0.286-5.589-0.286c-5.531,0-9.318,3.376-9.318,9.576v5.342h-6.255v7.245h6.255V49H34.119z"/>
</svg>
