<?xml version="1.0" encoding="utf-8"?>
<!-- Generator: Adobe Illustrator 16.0.4, SVG Export Plug-In . SVG Version: 6.00 Build 0)  -->
<!DOCTYPE svg PUBLIC "-//W3C//DTD SVG 1.1//EN" "http://www.w3.org/Graphics/SVG/1.1/DTD/svg11.dtd">
<svg version="1.1" id="Layer_1" xmlns="http://www.w3.org/2000/svg" xmlns:xlink="http://www.w3.org/1999/xlink" x="0px" y="0px"
	 width="50px" height="50px" viewBox="0 0 50 50" enable-background="new 0 0 50 50" xml:space="preserve">
<g>
	<g>
		<g>
			<path fill="#007BB5" d="M45.444,1H4.543C2.588,1,1,2.55,1,4.458v41.078C1,47.448,2.588,49,4.543,49h40.901
				C47.401,49,49,47.448,49,45.536V4.458C49,2.55,47.401,1,45.444,1z"/>
			<path fill="#FFFFFF" d="M8.113,18.997h7.122v22.906H8.113V18.997z M11.675,7.609c2.276,0,4.126,1.849,4.126,4.126
				c0,2.28-1.85,4.13-4.126,4.13c-2.282,0-4.127-1.85-4.127-4.13C7.548,9.458,9.393,7.609,11.675,7.609"/>
			<path fill="#FFFFFF" d="M19.701,18.997h6.83v3.128h0.097c0.95-1.8,3.273-3.7,6.737-3.7c7.203,0,8.535,4.743,8.535,10.914v12.563
				h-7.112V30.764c0-2.658-0.052-6.074-3.7-6.074c-3.705,0-4.27,2.895-4.27,5.882v11.331h-7.117V18.997z"/>
		</g>
	</g>
</g>
</svg>
