<?xml version="1.0" encoding="utf-8"?>
<!-- Generator: Adobe Illustrator 16.0.4, SVG Export Plug-In . SVG Version: 6.00 Build 0)  -->
<!DOCTYPE svg PUBLIC "-//W3C//DTD SVG 1.1//EN" "http://www.w3.org/Graphics/SVG/1.1/DTD/svg11.dtd">
<svg version="1.1" id="Layer_1" xmlns="http://www.w3.org/2000/svg" xmlns:xlink="http://www.w3.org/1999/xlink" x="0px" y="0px"
	 width="50px" height="50px" viewBox="0 0 50 50" enable-background="new 0 0 50 50" xml:space="preserve">
<path id="Blue_1_" fill="#13B5EA" d="M46.351,49C47.813,49,49,47.814,49,46.351V3.649C49,2.186,47.813,1,46.351,1H3.649
	C2.186,1,1,2.186,1,3.649v42.702C1,47.814,2.186,49,3.649,49H46.351z"/>
<path fill="#FFFFFF" d="M42.728,14.004c-1.304,0.579-2.706,0.969-4.178,1.146c1.502-0.9,2.655-2.326,3.198-4.024
	c-1.405,0.834-2.962,1.439-4.619,1.765c-1.326-1.414-3.218-2.297-5.31-2.297c-4.018,0-7.274,3.257-7.274,7.274
	c0,0.57,0.064,1.125,0.188,1.658c-6.045-0.304-11.406-3.2-14.993-7.601C9.115,13,8.755,14.249,8.755,15.582
	c0,2.524,1.285,4.75,3.237,6.055c-1.192-0.038-2.314-0.365-3.295-0.91c-0.001,0.03-0.001,0.061-0.001,0.091
	c0,3.524,2.507,6.464,5.835,7.133c-0.61,0.166-1.253,0.254-1.916,0.254c-0.469,0-0.925-0.045-1.369-0.13
	c0.926,2.89,3.613,4.993,6.795,5.053c-2.49,1.95-5.626,3.113-9.034,3.113c-0.587,0-1.166-0.035-1.735-0.103
	c3.219,2.064,7.042,3.269,11.15,3.269c13.379,0,20.696-11.084,20.696-20.696c0-0.315-0.007-0.629-0.021-0.941
	C40.519,16.745,41.752,15.463,42.728,14.004z"/>
</svg>
