<?xml version="1.0" encoding="utf-8"?>
<!-- Generator: Adobe Illustrator 16.0.4, SVG Export Plug-In . SVG Version: 6.00 Build 0)  -->
<!DOCTYPE svg PUBLIC "-//W3C//DTD SVG 1.1//EN" "http://www.w3.org/Graphics/SVG/1.1/DTD/svg11.dtd">
<svg version="1.1" id="Layer_1" xmlns="http://www.w3.org/2000/svg" xmlns:xlink="http://www.w3.org/1999/xlink" x="0px" y="0px"
	 width="50px" height="50px" viewBox="0 0 50 50" enable-background="new 0 0 50 50" xml:space="preserve">
<path id="Blue_1_" fill="#1AB7EA" d="M46.351,49C47.813,49,49,47.814,49,46.351V3.649C49,2.186,47.813,1,46.351,1H3.649
	C2.186,1,1,2.186,1,3.649v42.702C1,47.814,2.186,49,3.649,49H46.351z"/>
<path fill="#FFFFFF" d="M42.983,16.631c-0.163,3.506-2.611,8.305-7.345,14.397c-4.894,6.364-9.035,9.546-12.421,9.546
	c-2.098,0-3.875-1.938-5.324-5.813c-0.969-3.554-1.938-7.106-2.905-10.656c-1.078-3.875-2.233-5.813-3.468-5.813
	c-0.269,0-1.211,0.566-2.825,1.694L7,17.803c1.777-1.561,3.531-3.122,5.255-4.685c2.369-2.048,4.147-3.127,5.333-3.234
	c2.802-0.27,4.526,1.646,5.174,5.747c0.698,4.424,1.183,7.175,1.454,8.251c0.809,3.671,1.696,5.505,2.669,5.505
	c0.749,0,1.882-1.191,3.393-3.571c1.508-2.38,2.316-4.194,2.422-5.439c0.215-2.055-0.591-3.083-2.422-3.083
	c-0.861,0-1.751,0.197-2.665,0.59c1.767-5.797,5.149-8.613,10.14-8.452C41.453,9.54,43.194,11.94,42.983,16.631z"/>
</svg>
