<?xml version="1.0" encoding="utf-8"?>
<!-- Generator: Adobe Illustrator 17.1.0, SVG Export Plug-In . SVG Version: 6.00 Build 0)  -->
<!DOCTYPE svg PUBLIC "-//W3C//DTD SVG 1.1//EN" "http://www.w3.org/Graphics/SVG/1.1/DTD/svg11.dtd">
<svg version="1.1" id="Layer_1" xmlns="http://www.w3.org/2000/svg" xmlns:xlink="http://www.w3.org/1999/xlink" x="0px" y="0px"
	 viewBox="0 0 50 50" enable-background="new 0 0 50 50" xml:space="preserve">
<g>
	<defs>
		<path id="Blue_2_" d="M46.351,49C47.813,49,49,47.814,49,46.351V3.649C49,2.186,47.813,1,46.351,1H3.649C2.186,1,1,2.186,1,3.649
			v42.702C1,47.814,2.186,49,3.649,49H46.351z"/>
	</defs>
	<clipPath id="Blue_1_">
		<use xlink:href="#Blue_2_"  overflow="visible"/>
	</clipPath>
	<rect clip-path="url(#Blue_1_)" fill="#D42422" width="50" height="50"/>
</g>
<g id="Lozenge">
	<g>
		<path fill="#FFFFFF" d="M41.289,18.284c0,0-0.325-2.315-1.322-3.334c-1.264-1.338-2.681-1.344-3.331-1.423
			c-4.651-0.34-11.629-0.34-11.629-0.34h-0.015c0,0-6.978,0-11.63,0.34c-0.65,0.079-2.066,0.085-3.33,1.423
			c-0.997,1.019-1.321,3.334-1.321,3.334s-0.332,2.718-0.332,5.436v2.548c0,2.717,0.332,5.436,0.332,5.436s0.324,2.315,1.321,3.334
			c1.264,1.338,2.925,1.295,3.665,1.436C16.357,36.733,25,36.813,25,36.813s6.986-0.011,11.637-0.351
			c0.65-0.078,2.067-0.085,3.331-1.423c0.997-1.019,1.322-3.334,1.322-3.334s0.332-2.719,0.332-5.436v-2.548
			C41.621,21.002,41.289,18.284,41.289,18.284z M21.568,29.642l-0.001-9.387l8.723,4.543L21.568,29.642z"/>
	</g>
</g>
</svg>
